<svg xmlns="http://www.w3.org/2000/svg" xmlns:xlink="http://www.w3.org/1999/xlink" viewBox="0 0 239.56 305.47"><defs><filter id="ea399616-4974-446b-9dc5-8281712e15f6" x="0" y="-8364.28" width="141" height="32766" filterUnits="userSpaceOnUse" color-interpolation-filters="sRGB"><feFlood flood-color="#fff" result="bg"/><feBlend in="SourceGraphic" in2="bg"/></filter><mask id="f027b367-6c49-4fc3-8586-64169c0e254d" x="0" y="-8364.28" width="141" height="32766" maskUnits="userSpaceOnUse"><g style="filter:url(#ea399616-4974-446b-9dc5-8281712e15f6)"/></mask><linearGradient id="a2701eed-f34a-4706-9089-8954dcfdb761" x1="55.53" y1="297.65" x2="91.04" y2="227.13" gradientUnits="userSpaceOnUse"><stop offset="0.02"/><stop offset="0.04" stop-color="#070707"/><stop offset="0.15" stop-color="#404040"/><stop offset="0.27" stop-color="#737373"/><stop offset="0.39" stop-color="#9e9e9e"/><stop offset="0.51" stop-color="#c1c1c1"/><stop offset="0.63" stop-color="#dcdcdc"/><stop offset="0.75" stop-color="#f0f0f0"/><stop offset="0.87" stop-color="#fbfbfb"/><stop offset="1" stop-color="#fff"/></linearGradient><filter id="e3ebbbf5-c90a-4ff1-a33a-dd43e0acf8f0" x="0" y="233.33" width="141" height="72.14" filterUnits="userSpaceOnUse" color-interpolation-filters="sRGB"><feFlood flood-color="#fff" result="bg"/><feBlend in="SourceGraphic" in2="bg"/></filter><mask id="eb372d67-594e-4cc7-83d7-d8fa7108850c" x="0" y="233.33" width="141" height="72.14" maskUnits="userSpaceOnUse"><g style="mask:url(#f027b367-6c49-4fc3-8586-64169c0e254d);filter:url(#e3ebbbf5-c90a-4ff1-a33a-dd43e0acf8f0)"><polygon points="0 270.86 89.02 233.33 141 264.97 59.72 305.48 0 270.86" style="mix-blend-mode:multiply;fill:url(#a2701eed-f34a-4706-9089-8954dcfdb761)"/></g></mask><linearGradient id="ab83bffc-b829-4e05-a276-b02baec99a27" x1="55.53" y1="297.65" x2="91.04" y2="227.13" gradientUnits="userSpaceOnUse"><stop offset="0.02" stop-color="#fff"/><stop offset="0.17" stop-color="#ebe1d8"/><stop offset="0.33" stop-color="#d9c6b6"/><stop offset="0.49" stop-color="#cbb19b"/><stop offset="0.66" stop-color="#c1a287"/><stop offset="0.83" stop-color="#bb997c"/><stop offset="1" stop-color="#b99678"/></linearGradient><linearGradient id="bbf02aa7-61d9-4022-a49f-9388731ba8a2" x1="59.88" y1="65" x2="220.93" y2="65" gradientUnits="userSpaceOnUse"><stop offset="0.01" stop-color="#fb923c"/><stop offset="0.27" stop-color="#f47a49"/><stop offset="0.83" stop-color="#e13b6c"/><stop offset="1" stop-color="#db2777"/></linearGradient><linearGradient id="ea581443-4a07-41c1-ba81-4022f87d35cb" x1="54.99" y1="57.17" x2="216.05" y2="57.17" gradientUnits="userSpaceOnUse"><stop offset="0" stop-color="#d946ef"/><stop offset="0.21" stop-color="#d244ee"/><stop offset="0.52" stop-color="#be3fed"/><stop offset="0.9" stop-color="#9d36eb"/><stop offset="1" stop-color="#9333ea"/></linearGradient><linearGradient id="a8fc559c-b6fc-4744-9f1d-eb44fa90e849" x1="47.06" y1="20.15" x2="82.93" y2="20.15" xlink:href="#ea581443-4a07-41c1-ba81-4022f87d35cb"/><linearGradient id="efb2a4e4-4c4a-4f56-965a-1ebf7305782c" x1="203.7" y1="60.8" x2="228.82" y2="60.8" xlink:href="#ea581443-4a07-41c1-ba81-4022f87d35cb"/><linearGradient id="e65fdad6-5aa0-4e3b-bb2b-10fd5fe2e16a" x1="226.03" y1="65.72" x2="239.56" y2="65.72" xlink:href="#ea581443-4a07-41c1-ba81-4022f87d35cb"/><linearGradient id="ed96cc1a-9a35-4b11-bbbc-c908dddb86f1" x1="104.82" y1="139.42" x2="118.22" y2="139.42" gradientUnits="userSpaceOnUse"><stop offset="0" stop-color="#5d06ff"/><stop offset="0.16" stop-color="#6d15ff"/><stop offset="0.49" stop-color="#8930ff"/><stop offset="0.78" stop-color="#9a40ff"/><stop offset="1" stop-color="#a046ff"/></linearGradient><linearGradient id="e44aa630-f040-40d5-9543-676b7f7335b4" x1="102.28" y1="137.12" x2="115.69" y2="137.12" xlink:href="#ea581443-4a07-41c1-ba81-4022f87d35cb"/><linearGradient id="e513db77-70e3-4d71-88f4-58ed130c7287" x1="119.15" y1="163.67" x2="128.3" y2="163.67" xlink:href="#ed96cc1a-9a35-4b11-bbbc-c908dddb86f1"/><linearGradient id="ec61c9d7-8c08-4da9-9ca0-3eee1013d043" x1="117.43" y1="162.1" x2="126.57" y2="162.1" xlink:href="#ea581443-4a07-41c1-ba81-4022f87d35cb"/></defs><g id="b407cb32-f76e-4056-883a-216f15ec5326" data-name="Layer 2"><g id="b51459ca-5754-4835-81fa-96e194958ed8" data-name="Layer 1"><g style="mask:url(#eb372d67-594e-4cc7-83d7-d8fa7108850c)"><polygon points="0 270.86 89.02 233.33 141 264.97 59.72 305.48 0 270.86" style="opacity:0.7000000000000001;fill:url(#ab83bffc-b829-4e05-a276-b02baec99a27)"/></g><path d="M67.07,242.65l55.42-27.26V155.67l-59.73,21.9V240A3,3,0,0,0,67.07,242.65Z" style="fill:#eda462"/><path d="M122.48,274.13l-58-28.55a3,3,0,0,1-1.67-2.68V177.57l59.72,21.89Z" style="fill:#dd9b5e"/><path d="M177.9,242.65l-55.41-27.26V155.67l59.72,21.9V240A3,3,0,0,1,177.9,242.65Z" style="fill:#e59351"/><polygon points="145.13 133.03 122.49 155.67 182.21 177.57 204.87 154.71 145.13 133.03" style="fill:#f6c482"/><polygon points="40.1 154.71 62.76 177.57 122.49 155.67 99.85 133.03 40.1 154.71" style="fill:#f6c482"/><path d="M122.48,274.13l58.05-28.55a3,3,0,0,0,1.67-2.68V177.57l-59.72,21.89Z" style="fill:#f6c482"/><path d="M92.57,248.89,68.89,238.22a2.65,2.65,0,0,1-1.48-2.16v-12.2c0-.83.67-1.2,1.48-.83L92.57,233.7a2.63,2.63,0,0,1,1.48,2.17v12.19C94.05,248.89,93.39,249.26,92.57,248.89Z" style="fill:#cb794d"/><path d="M142.51,248.68a10.34,10.34,0,0,1-6.22,8.92c-3.44,1.33-6.22-.51-6.22-4.1a10.34,10.34,0,0,1,6.22-8.92c3.44-1.33,6.22.51,6.22,4.1Z" style="fill:#cb794d"/><path d="M131.38,253a10.4,10.4,0,0,1,5.57-8.63,5.67,5.67,0,0,0-.66.22,10.34,10.34,0,0,0-6.22,8.92c0,3.59,2.78,5.43,6.22,4.1a6.31,6.31,0,0,0,.66-.29c-3.13.87-5.57-1-5.57-4.32Z" style="fill:#b76441"/><path d="M132.8,255.73l2.73-1.06a.81.81,0,0,0,.49-.7.33.33,0,0,0-.49-.33l-2.73,1.05h0a0,0,0,0,1,0,0l.71-1.6c.35.18.88-.34.81-.78l-.13-.9c0-.34-.36-.44-.68-.19l-.89.72a.72.72,0,0,0-.28.77.3.3,0,0,0,.32.19l-.72,1.61c-.39.86.1,1.55.88,1.25Z" style="fill:#b76441"/><path d="M140.66,251.1l-1.33-1.94c-.13-.19-.43-.16-.67.07a.66.66,0,0,0-.19.77l1.33,1.94s0,0,0,0l0,0-1.5.57a.43.43,0,0,0-.09-.39c-.17-.16-.48-.07-.7.19,0,0-.72.87-.75.92-.24.3-.25.69,0,.8l.75.34a.64.64,0,0,0,.7-.35.71.71,0,0,0,.09-.47l1.5-.58c.77-.3,1.26-1.37.88-1.93Z" style="fill:#b76441"/><path d="M138.36,246.9a.79.79,0,0,0-.39.28l-.8-1.16c-.39-.57-1.37-.19-1.76.68L134,249.84c-.14.3-.05.58.18.63a.7.7,0,0,0,.68-.45l1.4-3.14,0,0s0,0,0,0l.81,1.17a.88.88,0,0,0-.32.43c-.1.3,0,.55.28.56l.89,0a.77.77,0,0,0,.67-.71l.14-1c0-.3-.15-.49-.42-.43Z" style="fill:#b76441"/><path d="M155.61,244.9l-9.56,4.62a1.1,1.1,0,0,0-.59.89c0,.33.26.47.59.31l9.56-4.63a1.09,1.09,0,0,0,.6-.88c0-.33-.27-.47-.6-.31Z" style="fill:#cb794d"/><path d="M146.05,244.74a1.1,1.1,0,0,0,.43-.38l.77-1.14v3.93c0,.33.27.47.6.31a1.08,1.08,0,0,0,.59-.89v-3.93l.78.4a.49.49,0,0,0,.42,0,1.24,1.24,0,0,0,.42-.38c.23-.35.23-.72,0-.84l-1.79-.93a.42.42,0,0,0-.2,0,.79.79,0,0,0-.45.22,2.2,2.2,0,0,0-.2.23l-1.79,2.66c-.23.34-.23.72,0,.84a.45.45,0,0,0,.42,0Z" style="fill:#cb794d"/><path d="M152,241.85a1.08,1.08,0,0,0,.42-.38l.77-1.14v3.93c0,.33.27.47.6.31a1.1,1.1,0,0,0,.6-.89v-3.93l.77.4a.49.49,0,0,0,.42,0,1.08,1.08,0,0,0,.42-.38c.24-.35.24-.72,0-.84l-1.79-.93a.38.38,0,0,0-.19,0,.82.82,0,0,0-.46.22,1.37,1.37,0,0,0-.19.23L151.61,241c-.24.34-.24.72,0,.84a.46.46,0,0,0,.42,0Z" style="fill:#cb794d"/><polygon points="52.77 152.56 111.87 174.3 122.48 199.47 62.77 177.57 52.77 152.56" style="fill:#df9f61"/><polygon points="192.2 152.57 191.95 153.19 182.2 177.57 123.13 199.24 122.5 199.47 122.49 199.47 133.1 174.3 192.2 152.57" style="fill:#df9f61"/><polygon points="122 199.29 122.34 199.15 122.81 198.95 112.33 174.11 111.87 174.3 111.41 174.5 121.85 199.24 122 199.29" style="fill:#cb794d"/><polygon points="111.41 174.5 52.59 153.03 52.94 152.09 112.33 174.11 111.41 174.5" style="fill:#f6c482"/><polygon points="192.37 153.04 191.95 153.19 133.48 174.7 123.13 199.24 122.5 199.47 122.49 199.47 122.03 199.27 132.72 173.91 192.03 152.1 192.2 152.57 192.37 153.04" style="fill:#f6c482"/><path d="M219,45c-5-13.26-18.19-21.4-31-27.33-31.17-14.38-69.39-12.6-99.71,2.75C74.56,27.36,62.68,39.67,60.3,54.83,57,75.77,73.15,96,92.8,103.94A73,73,0,0,0,105,107.63l5.48,12.18a4,4,0,0,0,7,.49l6.73-10.7a188.58,188.58,0,0,0,31.28-2.81c16.77-2.69,34-6.61,47.45-17S225,60.91,219,45Z" style="opacity:0.25;fill:url(#bbf02aa7-61d9-4022-a49f-9388731ba8a2)"/><path d="M214.12,37.17c-5-13.26-18.19-21.4-31-27.33-31.17-14.38-69.39-12.6-99.71,2.75C69.68,19.52,57.8,31.83,55.42,47c-3.29,20.94,12.85,41.19,32.5,49.12a72.76,72.76,0,0,0,12.22,3.69L105.61,112a4,4,0,0,0,7,.49l6.73-10.69A189.76,189.76,0,0,0,150.65,99c16.77-2.69,34-6.61,47.45-17S220.07,53.08,214.12,37.17Z" style="fill:url(#ea581443-4a07-41c1-ba81-4022f87d35cb)"/><path d="M50,38.23a2.9,2.9,0,0,1-2.65-4.06A62.65,62.65,0,0,1,78.85,2.33a2.9,2.9,0,1,1,2.36,5.29A56.76,56.76,0,0,0,52.62,36.49,2.9,2.9,0,0,1,50,38.23Z" style="fill:url(#a8fc559c-b6fc-4744-9f1d-eb44fa90e849)"/><path d="M206.59,98.38a2.9,2.9,0,0,1-2-5c17.59-16.3,23.42-44.1,13.86-66.09A2.9,2.9,0,1,1,223.79,25c10.51,24.17,4.1,54.73-15.23,72.65A2.85,2.85,0,0,1,206.59,98.38Z" style="fill:url(#efb2a4e4-4c4a-4f56-965a-1ebf7305782c)"/><path d="M228.93,83.25a2.89,2.89,0,0,1-2.29-4.67,34.7,34.7,0,0,0,6.61-27,2.9,2.9,0,0,1,5.7-1,40.56,40.56,0,0,1-7.73,31.57A2.88,2.88,0,0,1,228.93,83.25Z" style="fill:url(#e65fdad6-5aa0-4e3b-bb2b-10fd5fe2e16a)"/><ellipse cx="111.52" cy="139.42" rx="6.7" ry="7.39" style="opacity:0.2;fill:url(#ed96cc1a-9a35-4b11-bbbc-c908dddb86f1)"/><ellipse cx="108.99" cy="137.12" rx="6.7" ry="7.39" style="fill:url(#e44aa630-f040-40d5-9543-676b7f7335b4)"/><ellipse cx="123.73" cy="163.67" rx="4.57" ry="5.04" style="opacity:0.2;fill:url(#e513db77-70e3-4d71-88f4-58ed130c7287)"/><ellipse cx="122" cy="162.1" rx="4.57" ry="5.04" style="fill:url(#ec61c9d7-8c08-4da9-9ca0-3eee1013d043)"/><path d="M86.76,29h3.12V42.69H86.76Z" style="fill:#fff"/><path d="M100.81,31.55H97.48V42.69H94.34V31.55H91V29h9.81Z" style="fill:#fff"/><path d="M103,28.63h3.26l-2.76,5.29H101Z" style="fill:#fff"/><path d="M114,32.56a7.08,7.08,0,0,0-3.4-1c-1.1,0-1.62.51-1.62,1.16s.87,1.23,2,1.74c1.7.75,3.61,1.72,3.61,4.21s-2,4.14-5,4.14a8.6,8.6,0,0,1-3.93-.85V38.86a6.45,6.45,0,0,0,3.93,1.34,1.47,1.47,0,0,0,1.64-1.36c0-1-1.22-1.35-2.78-2.08s-2.92-1.68-2.92-3.87S107.38,29,110.48,29a8.69,8.69,0,0,1,3.52.68Z" style="fill:#fff"/><path d="M128.07,40.2v2.49h-8.49V29H128v2.49h-5.27v3.1h4.7V37.1h-4.7v3.1Z" style="fill:#fff"/><path d="M130.46,29h3.43l1.9,4.94a32.54,32.54,0,0,1,1.38,4.13A36,36,0,0,1,138.59,34L140.51,29h3.43l1.42,13.65h-3.12l-.51-5.28c-.22-2.46-.26-4-.26-4s-.53,1.52-1.46,4l-1.93,5.14h-1.84l-1.91-5.14a41.72,41.72,0,0,1-1.31-4c0,1.18-.08,2.58-.19,4l-.42,5.28h-3.12Z" style="fill:#fff"/><path d="M151.38,29c3.08,0,5.09,1.94,5.09,4.52,0,3.16-2.39,4.72-5.09,4.72H149.8v4.41h-3.12V29Zm-.55,6.76c1.81,0,2.48-.89,2.48-2.24s-.67-2-2.29-2H149.8V35.8Z" style="fill:#fff"/><path d="M166.18,31.55h-3.33V42.69h-3.14V31.55h-3.34V29h9.81Z" style="fill:#fff"/><path d="M173.82,37.67v5H170.7v-5L166,29h3.65l.83,2c1.43,3.47,1.72,4.38,1.72,4.38A30.13,30.13,0,0,1,174,31l.89-2h3.63Z" style="fill:#fff"/><path d="M121.93,53.36V67h-3.15V61.57h-5V67h-3.12V53.36h3.12v5.55h5V53.36Z" style="fill:#fff"/><path d="M132,64.53V67h-8.49V53.36H132v2.49h-5.27V59h4.7v2.48h-4.7v3.1Z" style="fill:#fff"/><path d="M137.64,62.28h-.95V67h-3.12V53.36h4.72c3.08,0,5.06,1.8,5.06,4.38a4.11,4.11,0,0,1-2.49,4L144.32,67H140.6Zm-.95-2.54h1.47c1.42,0,2-.68,2-2a1.77,1.77,0,0,0-2-1.87h-1.54Z" style="fill:#fff"/><path d="M153.49,64.53V67H145V53.36h8.41v2.49h-5.27V59h4.7v2.48h-4.7v3.1Z" style="fill:#fff"/></g></g></svg>